<svg width="71" height="320" viewBox="0 0 71 320" fill="none" xmlns="http://www.w3.org/2000/svg">
<g clip-path="url(#clip0_31_267)">
<rect x="32.8552" width="5" height="135.289" fill="#D9D9D9"/>
<path d="M17.6777 177.322C7.91456 167.559 7.91456 151.73 17.6777 141.967V141.967C27.4408 132.204 43.2699 132.204 53.033 141.967L70.7107 159.645L53.033 177.322C43.2699 187.085 27.4408 187.085 17.6777 177.322V177.322Z" fill="#D9D9D9"/>
<path d="M40.9512 161.129C41.1112 161.609 41.1912 162.169 41.1912 162.809C41.1912 163.193 41.1752 163.489 41.1432 163.697C41.0312 164.625 40.7752 165.433 40.3752 166.121C39.8472 167.097 39.0872 167.873 38.0952 168.449C37.1192 169.009 36.0232 169.289 34.8072 169.289C33.5912 169.289 32.5592 169.001 31.7112 168.425C30.8632 167.849 30.2952 167.057 30.0072 166.049C29.8632 165.585 29.7912 165.089 29.7912 164.561C29.7912 164.273 29.8152 163.977 29.8632 163.673L30.7272 156.545C30.8392 155.681 31.1672 154.921 31.7112 154.265C32.2552 153.593 32.9592 153.073 33.8232 152.705C34.7032 152.337 35.6792 152.153 36.7512 152.153C38.2232 152.153 39.4072 152.505 40.3032 153.209C41.1992 153.897 41.6472 154.809 41.6472 155.945C41.6472 156.057 41.6312 156.241 41.5992 156.497L41.5032 157.313C41.4872 157.393 41.4472 157.465 41.3832 157.529C41.3352 157.577 41.2712 157.601 41.1912 157.601H37.8792C37.7992 157.601 37.7352 157.577 37.6872 157.529C37.6392 157.465 37.6232 157.393 37.6392 157.313L37.6632 157.073L37.6872 156.857C37.6872 156.473 37.5592 156.161 37.3032 155.921C37.0632 155.681 36.7352 155.561 36.3192 155.561C35.8552 155.561 35.4552 155.713 35.1192 156.017C34.7832 156.305 34.5832 156.673 34.5192 157.121L34.3032 158.993C34.2872 159.041 34.2952 159.073 34.3272 159.089C34.3592 159.105 34.3912 159.097 34.4232 159.065C35.0792 158.585 35.8952 158.345 36.8712 158.345C37.8152 158.345 38.6472 158.585 39.3672 159.065C40.1032 159.545 40.6312 160.233 40.9512 161.129ZM36.7512 165.065C37.1192 164.585 37.3032 164.049 37.3032 163.457C37.3032 163.057 37.2232 162.705 37.0632 162.401C36.8072 161.921 36.3672 161.681 35.7432 161.681C35.0872 161.681 34.5832 161.929 34.2312 162.425C33.9592 162.777 33.7912 163.225 33.7272 163.769C33.7112 163.865 33.7032 163.993 33.7032 164.153C33.7032 164.473 33.7592 164.777 33.8712 165.065C34.1112 165.609 34.5592 165.881 35.2152 165.881C35.8552 165.881 36.3672 165.609 36.7512 165.065Z" fill="#222222"/>
</g>
<defs>
<clipPath id="clip0_31_267">
<rect width="70.7107" height="320" fill="white"/>
</clipPath>
</defs>
</svg>
