<svg width="71" height="320" viewBox="0 0 71 320" fill="none" xmlns="http://www.w3.org/2000/svg">
<g clip-path="url(#clip0_31_250)">
<rect x="32.8552" width="5" height="135.645" fill="#D9D9D9"/>
<path d="M17.6777 177.678C7.91456 167.915 7.91456 152.085 17.6777 142.322V142.322C27.4408 132.559 43.2699 132.559 53.033 142.322L70.7107 160L53.033 177.678C43.2699 187.441 27.4408 187.441 17.6777 177.678V177.678Z" fill="#D9D9D9"/>
<path d="M41.0712 161.748C41.1832 162.196 41.2392 162.692 41.2392 163.236C41.2392 163.396 41.2232 163.668 41.1912 164.052C41.0792 164.9 40.8472 165.668 40.4952 166.356C39.9672 167.348 39.1912 168.148 38.1672 168.756C37.1592 169.348 36.0472 169.644 34.8312 169.644C33.5992 169.644 32.5512 169.356 31.6872 168.78C30.8392 168.188 30.2632 167.388 29.9592 166.38C29.8312 165.948 29.7672 165.468 29.7672 164.94C29.7672 164.732 29.8712 164.628 30.0792 164.628H33.4872C33.6312 164.628 33.7272 164.708 33.7752 164.868C33.7912 164.964 33.8312 165.092 33.8952 165.252C34.1032 165.908 34.5352 166.236 35.1912 166.236C35.5272 166.236 35.8312 166.156 36.1032 165.996C36.3912 165.82 36.6312 165.572 36.8232 165.252C37.0472 164.932 37.1832 164.532 37.2312 164.052C37.2472 163.956 37.2552 163.812 37.2552 163.62C37.2552 163.332 37.2152 163.092 37.1352 162.9C37.0712 162.612 36.9192 162.388 36.6792 162.228C36.4392 162.052 36.1592 161.964 35.8392 161.964C35.4872 161.964 35.1432 162.052 34.8072 162.228C34.4712 162.404 34.2312 162.628 34.0872 162.9C34.0072 163.06 33.8952 163.14 33.7512 163.14H30.2952C30.2152 163.14 30.1512 163.116 30.1032 163.068C30.0552 163.004 30.0392 162.932 30.0552 162.852L31.2552 152.988C31.2712 152.908 31.3032 152.844 31.3512 152.796C31.4152 152.732 31.4872 152.7 31.5672 152.7H41.7672C41.8472 152.7 41.9112 152.732 41.9592 152.796C42.0072 152.844 42.0232 152.908 42.0072 152.988L41.6712 155.82C41.6552 155.9 41.6152 155.972 41.5512 156.036C41.5032 156.084 41.4392 156.108 41.3592 156.108H34.8552C34.7912 156.108 34.7432 156.148 34.7112 156.228L34.3752 159.036C34.3752 159.132 34.4152 159.156 34.4952 159.108C35.1992 158.724 35.9512 158.532 36.7512 158.532C37.8392 158.532 38.7672 158.82 39.5352 159.396C40.3032 159.972 40.8152 160.756 41.0712 161.748Z" fill="#222222"/>
<rect x="32.8552" y="184.355" width="5" height="135.645" fill="#D9D9D9"/>
</g>
<defs>
<clipPath id="clip0_31_250">
<rect width="70.7107" height="320" fill="white"/>
</clipPath>
</defs>
</svg>
