<svg width="71" height="320" viewBox="0 0 71 320" fill="none" xmlns="http://www.w3.org/2000/svg">
<g clip-path="url(#clip0_26_233)">
<rect x="32.8552" width="5" height="135.645" fill="#D9D9D9"/>
<path d="M17.6777 177.678C7.91456 167.915 7.91456 152.085 17.6777 142.322V142.322C27.4408 132.559 43.2699 132.559 53.033 142.322L70.7107 160L53.033 177.678C43.2699 187.441 27.4408 187.441 17.6777 177.678V177.678Z" fill="#D9D9D9"/>
<path d="M41.6072 161.772C41.6872 161.772 41.7512 161.804 41.7992 161.868C41.8472 161.916 41.8632 161.98 41.8472 162.06L41.4872 165.012C41.4712 165.092 41.4312 165.164 41.3672 165.228C41.3192 165.276 41.2552 165.3 41.1752 165.3H40.1672C40.0872 165.3 40.0472 165.34 40.0472 165.42L39.5672 169.212C39.5672 169.292 39.5352 169.364 39.4712 169.428C39.4072 169.476 39.3352 169.5 39.2552 169.5H35.9672C35.7912 169.5 35.7032 169.404 35.7032 169.212L36.1832 165.42C36.1832 165.34 36.1512 165.3 36.0872 165.3H28.8152C28.7352 165.3 28.6712 165.276 28.6232 165.228C28.5752 165.164 28.5592 165.092 28.5752 165.012L28.8632 162.684C28.8632 162.636 28.8952 162.516 28.9592 162.324L34.1192 152.916C34.1992 152.772 34.3192 152.7 34.4792 152.7H38.0312C38.1272 152.7 38.1912 152.732 38.2232 152.796C38.2712 152.844 38.2632 152.924 38.1992 153.036L33.4712 161.628C33.4552 161.66 33.4552 161.692 33.4712 161.724C33.4872 161.756 33.5032 161.772 33.5192 161.772H36.5192C36.5992 161.772 36.6392 161.732 36.6392 161.652L36.9752 158.964C36.9912 158.884 37.0232 158.82 37.0712 158.772C37.1352 158.708 37.2072 158.676 37.2872 158.676H40.5992C40.6792 158.676 40.7432 158.708 40.7912 158.772C40.8392 158.82 40.8552 158.884 40.8392 158.964L40.5032 161.652C40.5032 161.732 40.5352 161.772 40.5992 161.772H41.6072Z" fill="#222222"/>
<rect x="32.8552" y="184.355" width="5" height="135.645" fill="#D9D9D9"/>
</g>
<defs>
<clipPath id="clip0_26_233">
<rect width="70.7107" height="320" fill="white"/>
</clipPath>
</defs>
</svg>
