<svg width="71" height="320" viewBox="0 0 71 320" fill="none" xmlns="http://www.w3.org/2000/svg">
<g clip-path="url(#clip0_26_54)">
<path d="M17.6777 178.033C7.91456 168.27 7.91456 152.441 17.6777 142.678C27.4408 132.915 43.2699 132.915 53.033 142.678L70.7107 160.355L53.033 178.033C43.2699 187.796 27.4408 187.796 17.6777 178.033Z" fill="#0C0C3D"/>
<path d="M35.7032 153.127C35.8152 153.079 35.9352 153.055 36.0632 153.055H39.4712C39.5512 153.055 39.6152 153.087 39.6632 153.151C39.7112 153.199 39.7272 153.263 39.7112 153.343L37.7192 169.567C37.7032 169.647 37.6632 169.719 37.5992 169.783C37.5512 169.831 37.4872 169.855 37.4072 169.855H34.0952C34.0152 169.855 33.9512 169.831 33.9032 169.783C33.8552 169.719 33.8392 169.647 33.8552 169.567L35.4152 156.871C35.4152 156.839 35.3992 156.807 35.3672 156.775C35.3352 156.743 35.3032 156.735 35.2712 156.751L32.9432 157.303L32.8472 157.327C32.6872 157.327 32.6232 157.239 32.6552 157.063L32.9192 154.543C32.9512 154.383 33.0392 154.271 33.1832 154.207L35.7032 153.127Z" fill="white"/>
<rect x="32.8552" y="184.711" width="5" height="135.289" fill="#0C0C3D"/>
</g>
<defs>
<clipPath id="clip0_26_54">
<rect width="70.7107" height="320" fill="white"/>
</clipPath>
</defs>
</svg>
