<svg width="71" height="320" viewBox="0 0 71 320" fill="none" xmlns="http://www.w3.org/2000/svg">
<g clip-path="url(#clip0_26_216)">
<rect x="32.8552" width="5" height="135.645" fill="url(#paint0_linear_26_216)"/>
<path d="M17.6777 177.678C7.91456 167.915 7.91456 152.085 17.6777 142.322V142.322C27.4408 132.559 43.2699 132.559 53.033 142.322L70.7107 160L53.033 177.678C43.2699 187.441 27.4408 187.441 17.6777 177.678V177.678Z" fill="#D9D9D9"/>
<path d="M40.8792 161.436C41.0232 161.932 41.0952 162.468 41.0952 163.044C41.0952 163.236 41.0792 163.524 41.0472 163.908C40.9352 164.756 40.6792 165.564 40.2792 166.332C39.7512 167.372 38.9912 168.196 37.9992 168.804C37.0072 169.396 35.8952 169.692 34.6632 169.692C33.4472 169.692 32.4072 169.388 31.5432 168.78C30.6952 168.156 30.1272 167.316 29.8392 166.26C29.6952 165.748 29.6232 165.212 29.6232 164.652L29.6472 164.148C29.6632 164.052 29.6952 163.98 29.7432 163.932C29.8072 163.884 29.8792 163.86 29.9592 163.86H33.3192C33.4952 163.86 33.5832 163.956 33.5832 164.148C33.5512 164.596 33.5992 164.98 33.7272 165.3C33.8072 165.62 33.9592 165.868 34.1832 166.044C34.4232 166.204 34.7112 166.284 35.0472 166.284C35.7032 166.284 36.2312 165.98 36.6312 165.372C36.9192 164.956 37.0872 164.428 37.1352 163.788C37.1672 163.5 37.1832 163.292 37.1832 163.164C37.1832 162.732 37.1272 162.38 37.0152 162.108C36.7912 161.516 36.3352 161.22 35.6472 161.22C35.4712 161.22 35.2712 161.284 35.0472 161.412C34.8232 161.524 34.5352 161.7 34.1832 161.94C34.1192 161.988 34.0552 162.012 33.9912 162.012C33.9112 162.012 33.8472 161.964 33.7992 161.868L32.4312 159.468C32.3992 159.404 32.3832 159.348 32.3832 159.3C32.3832 159.204 32.4312 159.124 32.5272 159.06L36.4632 156.252C36.4952 156.22 36.5112 156.188 36.5112 156.156C36.5112 156.124 36.4872 156.108 36.4392 156.108H31.3272C31.2472 156.108 31.1832 156.084 31.1352 156.036C31.0872 155.972 31.0712 155.9 31.0872 155.82L31.4472 152.988C31.4632 152.908 31.4952 152.844 31.5432 152.796C31.6072 152.732 31.6792 152.7 31.7592 152.7H41.9112C41.9912 152.7 42.0552 152.732 42.1032 152.796C42.1512 152.844 42.1672 152.908 42.1512 152.988L41.7672 156.18C41.7512 156.324 41.6792 156.444 41.5512 156.54L38.4552 158.82C38.3752 158.9 38.3832 158.956 38.4792 158.988C39.6952 159.324 40.4952 160.14 40.8792 161.436Z" fill="#222222"/>
<rect x="32.8552" y="184.355" width="5" height="135.645" fill="#D9D9D9"/>
</g>
<defs>
<linearGradient id="paint0_linear_26_216" x1="35.3552" y1="0" x2="35.3552" y2="135.645" gradientUnits="userSpaceOnUse">
<stop stop-color="#0C0C3D"/>
<stop offset="0.815625" stop-color="#D9D9D9"/>
</linearGradient>
<clipPath id="clip0_26_216">
<rect width="70.7107" height="320" fill="white"/>
</clipPath>
</defs>
</svg>
