<svg width="71" height="320" viewBox="0 0 71 320" fill="none" xmlns="http://www.w3.org/2000/svg">
<g clip-path="url(#clip0_26_203)">
<rect x="32.8552" width="5" height="135.645" fill="#0C0C3D"/>
<path d="M17.6777 177.678C7.91456 167.915 7.91456 152.085 17.6777 142.322V142.322C27.4408 132.559 43.2699 132.559 53.033 142.322L70.7107 160L53.033 177.678C43.2699 187.441 27.4408 187.441 17.6777 177.678V177.678Z" fill="#0C0C3D"/>
<path d="M34.4512 165.948C34.4192 165.98 34.4032 166.012 34.4032 166.044C34.4192 166.076 34.4512 166.092 34.4992 166.092H40.4272C40.6032 166.092 40.6912 166.188 40.6912 166.38L40.3312 169.212C40.3152 169.292 40.2752 169.364 40.2112 169.428C40.1632 169.476 40.0992 169.5 40.0192 169.5H29.0992C29.0192 169.5 28.9552 169.476 28.9072 169.428C28.8592 169.364 28.8432 169.292 28.8592 169.212L29.1952 166.548C29.1952 166.404 29.2592 166.284 29.3872 166.188C30.5072 165.228 31.8992 163.932 33.5632 162.3C33.5312 162.332 34.0512 161.836 35.1232 160.812C36.7232 159.292 37.5632 158.196 37.6432 157.524C37.7072 157.06 37.5872 156.676 37.2832 156.372C36.9952 156.068 36.5872 155.916 36.0592 155.916C35.5152 155.916 35.0672 156.068 34.7152 156.372C34.3632 156.676 34.1552 157.076 34.0912 157.572L34.0192 158.148C34.0032 158.228 33.9632 158.3 33.8992 158.364C33.8352 158.412 33.7632 158.436 33.6832 158.436H30.3472C30.2672 158.436 30.2032 158.412 30.1552 158.364C30.1072 158.3 30.0912 158.228 30.1072 158.148L30.2512 156.948C30.4272 156.052 30.8112 155.268 31.4032 154.596C31.9952 153.924 32.7312 153.412 33.6112 153.06C34.4912 152.692 35.4432 152.508 36.4672 152.508C37.5392 152.508 38.4592 152.7 39.2272 153.084C39.9952 153.468 40.5792 153.996 40.9792 154.668C41.3792 155.324 41.5792 156.06 41.5792 156.876C41.5792 157.644 41.3792 158.412 40.9792 159.18C40.5792 159.932 39.9792 160.732 39.1792 161.58C38.4432 162.364 37.1072 163.604 35.1712 165.3L34.4512 165.948Z" fill="white"/>
<rect x="32.8552" y="184.355" width="5" height="135.645" fill="#0C0C3D"/>
</g>
<defs>
<clipPath id="clip0_26_203">
<rect width="70.7107" height="320" fill="white"/>
</clipPath>
</defs>
</svg>
